<?xml version="1.0" encoding="UTF-8"?>
<svg version="1.1" viewBox="0 0 1422 800" xmlns="http://www.w3.org/2000/svg">
<g fill="none" stroke="#ffc809" stroke-linecap="square" stroke-width="3.5">
<line x2="54" y2="54"/>
<line x1="54" x2="108" y2="54"/>
<line x1="108" x2="162" y2="54"/>
<line x1="162" x2="216" y2="54"/>
<line x1="216" x2="270" y2="54"/>
<line x1="324" x2="270" y2="54"/>
<line x1="378" x2="324" y2="54"/>
<line x1="432" x2="378" y2="54"/>
<line x1="486" x2="432" y2="54"/>
<line x1="486" x2="540" y2="54"/>
<line x1="594" x2="540" y2="54"/>
<line x1="594" x2="648" y2="54"/>
<line x1="702" x2="648" y2="54"/>
<line x1="756" x2="702" y2="54"/>
<line x1="810" x2="756" y2="54"/>
<line x1="810" x2="864" y2="54"/>
<line x1="918" x2="864" y2="54"/>
<line x1="918" x2="972" y2="54"/>
<line x1="972" x2="1026" y2="54"/>
<line x1="1026" x2="1080" y2="54"/>
<line x1="1134" x2="1080" y2="54"/>
<line x1="1188" x2="1134" y2="54"/>
<line x1="1188" x2="1242" y2="54"/>
<line x1="1296" x2="1242" y2="54"/>
<line x1="1296" x2="1350" y2="54"/>
<line x1="1404" x2="1350" y2="54"/>
<line x1="1404" x2="1458" y2="54"/>
<line x2="54" y1="54" y2="108" opacity=".94"/>
<line x1="108" x2="54" y1="54" y2="108" opacity=".94"/>
<line x1="162" x2="108" y1="54" y2="108" opacity=".94"/>
<line x1="216" x2="162" y1="54" y2="108" opacity=".94"/>
<line x1="216" x2="270" y1="54" y2="108" opacity=".94"/>
<line x1="270" x2="324" y1="54" y2="108" opacity=".94"/>
<line x1="378" x2="324" y1="54" y2="108" opacity=".94"/>
<line x1="378" x2="432" y1="54" y2="108" opacity=".94"/>
<line x1="432" x2="486" y1="54" y2="108" opacity=".94"/>
<line x1="540" x2="486" y1="54" y2="108" opacity=".94"/>
<line x1="540" x2="594" y1="54" y2="108" opacity=".94"/>
<line x1="594" x2="648" y1="54" y2="108" opacity=".94"/>
<line x1="702" x2="648" y1="54" y2="108" opacity=".94"/>
<line x1="702" x2="756" y1="54" y2="108" opacity=".94"/>
<line x1="756" x2="810" y1="54" y2="108" opacity=".94"/>
<line x1="810" x2="864" y1="54" y2="108" opacity=".94"/>
<line x1="918" x2="864" y1="54" y2="108" opacity=".94"/>
<line x1="972" x2="918" y1="54" y2="108" opacity=".94"/>
<line x1="972" x2="1026" y1="54" y2="108" opacity=".94"/>
<line x1="1026" x2="1080" y1="54" y2="108" opacity=".94"/>
<line x1="1134" x2="1080" y1="54" y2="108" opacity=".94"/>
<line x1="1134" x2="1188" y1="54" y2="108" opacity=".94"/>
<line x1="1242" x2="1188" y1="54" y2="108" opacity=".94"/>
<line x1="1296" x2="1242" y1="54" y2="108" opacity=".94"/>
<line x1="1350" x2="1296" y1="54" y2="108" opacity=".94"/>
<line x1="1404" x2="1350" y1="54" y2="108" opacity=".94"/>
<line x1="1404" x2="1458" y1="54" y2="108" opacity=".94"/>
<line x1="54" y1="108" y2="162" opacity=".87"/>
<line x1="54" x2="108" y1="108" y2="162" opacity=".87"/>
<line x1="162" x2="108" y1="108" y2="162" opacity=".87"/>
<line x1="162" x2="216" y1="108" y2="162" opacity=".87"/>
<line x1="270" x2="216" y1="108" y2="162" opacity=".87"/>
<line x1="270" x2="324" y1="108" y2="162" opacity=".87"/>
<line x1="324" x2="378" y1="108" y2="162" opacity=".87"/>
<line x1="378" x2="432" y1="108" y2="162" opacity=".87"/>
<line x1="486" x2="432" y1="108" y2="162" opacity=".87"/>
<line x1="540" x2="486" y1="108" y2="162" opacity=".87"/>
<line x1="594" x2="540" y1="108" y2="162" opacity=".87"/>
<line x1="648" x2="594" y1="108" y2="162" opacity=".87"/>
<line x1="648" x2="702" y1="108" y2="162" opacity=".87"/>
<line x1="756" x2="702" y1="108" y2="162" opacity=".87"/>
<line x1="810" x2="756" y1="108" y2="162" opacity=".87"/>
<line x1="864" x2="810" y1="108" y2="162" opacity=".87"/>
<line x1="864" x2="918" y1="108" y2="162" opacity=".87"/>
<line x1="918" x2="972" y1="108" y2="162" opacity=".87"/>
<line x1="1026" x2="972" y1="108" y2="162" opacity=".87"/>
<line x1="1026" x2="1080" y1="108" y2="162" opacity=".87"/>
<line x1="1080" x2="1134" y1="108" y2="162" opacity=".87"/>
<line x1="1134" x2="1188" y1="108" y2="162" opacity=".87"/>
<line x1="1188" x2="1242" y1="108" y2="162" opacity=".87"/>
<line x1="1296" x2="1242" y1="108" y2="162" opacity=".87"/>
<line x1="1350" x2="1296" y1="108" y2="162" opacity=".87"/>
<line x1="1350" x2="1404" y1="108" y2="162" opacity=".87"/>
<line x1="1404" x2="1458" y1="108" y2="162" opacity=".87"/>
<line x1="54" y1="162" y2="216" opacity=".81"/>
<line x1="54" x2="108" y1="162" y2="216" opacity=".81"/>
<line x1="108" x2="162" y1="162" y2="216" opacity=".81"/>
<line x1="162" x2="216" y1="162" y2="216" opacity=".81"/>
<line x1="270" x2="216" y1="162" y2="216" opacity=".81"/>
<line x1="324" x2="270" y1="162" y2="216" opacity=".81"/>
<line x1="324" x2="378" y1="162" y2="216" opacity=".81"/>
<line x1="432" x2="378" y1="162" y2="216" opacity=".81"/>
<line x1="432" x2="486" y1="162" y2="216" opacity=".81"/>
<line x1="486" x2="540" y1="162" y2="216" opacity=".81"/>
<line x1="594" x2="540" y1="162" y2="216" opacity=".81"/>
<line x1="594" x2="648" y1="162" y2="216" opacity=".81"/>
<line x1="648" x2="702" y1="162" y2="216" opacity=".81"/>
<line x1="702" x2="756" y1="162" y2="216" opacity=".81"/>
<line x1="810" x2="756" y1="162" y2="216" opacity=".81"/>
<line x1="864" x2="810" y1="162" y2="216" opacity=".81"/>
<line x1="918" x2="864" y1="162" y2="216" opacity=".81"/>
<line x1="972" x2="918" y1="162" y2="216" opacity=".81"/>
<line x1="972" x2="1026" y1="162" y2="216" opacity=".81"/>
<line x1="1080" x2="1026" y1="162" y2="216" opacity=".81"/>
<line x1="1134" x2="1080" y1="162" y2="216" opacity=".81"/>
<line x1="1134" x2="1188" y1="162" y2="216" opacity=".81"/>
<line x1="1242" x2="1188" y1="162" y2="216" opacity=".81"/>
<line x1="1242" x2="1296" y1="162" y2="216" opacity=".81"/>
<line x1="1296" x2="1350" y1="162" y2="216" opacity=".81"/>
<line x1="1404" x2="1350" y1="162" y2="216" opacity=".81"/>
<line x1="1404" x2="1458" y1="162" y2="216" opacity=".81"/>
<line x1="54" y1="216" y2="270" opacity=".74"/>
<line x1="108" x2="54" y1="216" y2="270" opacity=".74"/>
<line x1="162" x2="108" y1="216" y2="270" opacity=".74"/>
<line x1="216" x2="162" y1="216" y2="270" opacity=".74"/>
<line x1="216" x2="270" y1="216" y2="270" opacity=".74"/>
<line x1="324" x2="270" y1="216" y2="270" opacity=".74"/>
<line x1="324" x2="378" y1="216" y2="270" opacity=".74"/>
<line x1="378" x2="432" y1="216" y2="270" opacity=".74"/>
<line x1="432" x2="486" y1="216" y2="270" opacity=".74"/>
<line x1="540" x2="486" y1="216" y2="270" opacity=".74"/>
<line x1="540" x2="594" y1="216" y2="270" opacity=".74"/>
<line x1="594" x2="648" y1="216" y2="270" opacity=".74"/>
<line x1="702" x2="648" y1="216" y2="270" opacity=".74"/>
<line x1="756" x2="702" y1="216" y2="270" opacity=".74"/>
<line x1="810" x2="756" y1="216" y2="270" opacity=".74"/>
<line x1="810" x2="864" y1="216" y2="270" opacity=".74"/>
<line x1="918" x2="864" y1="216" y2="270" opacity=".74"/>
<line x1="972" x2="918" y1="216" y2="270" opacity=".74"/>
<line x1="1026" x2="972" y1="216" y2="270" opacity=".74"/>
<line x1="1026" x2="1080" y1="216" y2="270" opacity=".74"/>
<line x1="1134" x2="1080" y1="216" y2="270" opacity=".74"/>
<line x1="1134" x2="1188" y1="216" y2="270" opacity=".74"/>
<line x1="1188" x2="1242" y1="216" y2="270" opacity=".74"/>
<line x1="1242" x2="1296" y1="216" y2="270" opacity=".74"/>
<line x1="1350" x2="1296" y1="216" y2="270" opacity=".74"/>
<line x1="1350" x2="1404" y1="216" y2="270" opacity=".74"/>
<line x1="1404" x2="1458" y1="216" y2="270" opacity=".74"/>
<line x1="54" y1="270" y2="324" opacity=".68"/>
<line x1="54" x2="108" y1="270" y2="324" opacity=".68"/>
<line x1="108" x2="162" y1="270" y2="324" opacity=".68"/>
<line x1="162" x2="216" y1="270" y2="324" opacity=".68"/>
<line x1="270" x2="216" y1="270" y2="324" opacity=".68"/>
<line x1="324" x2="270" y1="270" y2="324" opacity=".68"/>
<line x1="324" x2="378" y1="270" y2="324" opacity=".68"/>
<line x1="378" x2="432" y1="270" y2="324" opacity=".68"/>
<line x1="432" x2="486" y1="270" y2="324" opacity=".68"/>
<line x1="540" x2="486" y1="270" y2="324" opacity=".68"/>
<line x1="594" x2="540" y1="270" y2="324" opacity=".68"/>
<line x1="594" x2="648" y1="270" y2="324" opacity=".68"/>
<line x1="702" x2="648" y1="270" y2="324" opacity=".68"/>
<line x1="702" x2="756" y1="270" y2="324" opacity=".68"/>
<line x1="756" x2="810" y1="270" y2="324" opacity=".68"/>
<line x1="864" x2="810" y1="270" y2="324" opacity=".68"/>
<line x1="864" x2="918" y1="270" y2="324" opacity=".68"/>
<line x1="918" x2="972" y1="270" y2="324" opacity=".68"/>
<line x1="972" x2="1026" y1="270" y2="324" opacity=".68"/>
<line x1="1080" x2="1026" y1="270" y2="324" opacity=".68"/>
<line x1="1080" x2="1134" y1="270" y2="324" opacity=".68"/>
<line x1="1134" x2="1188" y1="270" y2="324" opacity=".68"/>
<line x1="1188" x2="1242" y1="270" y2="324" opacity=".68"/>
<line x1="1296" x2="1242" y1="270" y2="324" opacity=".68"/>
<line x1="1350" x2="1296" y1="270" y2="324" opacity=".68"/>
<line x1="1404" x2="1350" y1="270" y2="324" opacity=".68"/>
<line x1="1404" x2="1458" y1="270" y2="324" opacity=".68"/>
<line x2="54" y1="324" y2="378" opacity=".62"/>
<line x1="108" x2="54" y1="324" y2="378" opacity=".62"/>
<line x1="108" x2="162" y1="324" y2="378" opacity=".62"/>
<line x1="162" x2="216" y1="324" y2="378" opacity=".62"/>
<line x1="216" x2="270" y1="324" y2="378" opacity=".62"/>
<line x1="324" x2="270" y1="324" y2="378" opacity=".62"/>
<line x1="324" x2="378" y1="324" y2="378" opacity=".62"/>
<line x1="432" x2="378" y1="324" y2="378" opacity=".62"/>
<line x1="432" x2="486" y1="324" y2="378" opacity=".62"/>
<line x1="540" x2="486" y1="324" y2="378" opacity=".62"/>
<line x1="540" x2="594" y1="324" y2="378" opacity=".62"/>
<line x1="648" x2="594" y1="324" y2="378" opacity=".62"/>
<line x1="702" x2="648" y1="324" y2="378" opacity=".62"/>
<line x1="702" x2="756" y1="324" y2="378" opacity=".62"/>
<line x1="756" x2="810" y1="324" y2="378" opacity=".62"/>
<line x1="864" x2="810" y1="324" y2="378" opacity=".62"/>
<line x1="918" x2="864" y1="324" y2="378" opacity=".62"/>
<line x1="918" x2="972" y1="324" y2="378" opacity=".62"/>
<line x1="972" x2="1026" y1="324" y2="378" opacity=".62"/>
<line x1="1026" x2="1080" y1="324" y2="378" opacity=".62"/>
<line x1="1134" x2="1080" y1="324" y2="378" opacity=".62"/>
<line x1="1134" x2="1188" y1="324" y2="378" opacity=".62"/>
<line x1="1242" x2="1188" y1="324" y2="378" opacity=".62"/>
<line x1="1242" x2="1296" y1="324" y2="378" opacity=".62"/>
<line x1="1350" x2="1296" y1="324" y2="378" opacity=".62"/>
<line x1="1404" x2="1350" y1="324" y2="378" opacity=".62"/>
<line x1="1458" x2="1404" y1="324" y2="378" opacity=".62"/>
<line x2="54" y1="378" y2="432" opacity=".55"/>
<line x1="108" x2="54" y1="378" y2="432" opacity=".55"/>
<line x1="108" x2="162" y1="378" y2="432" opacity=".55"/>
<line x1="216" x2="162" y1="378" y2="432" opacity=".55"/>
<line x1="270" x2="216" y1="378" y2="432" opacity=".55"/>
<line x1="270" x2="324" y1="378" y2="432" opacity=".55"/>
<line x1="378" x2="324" y1="378" y2="432" opacity=".55"/>
<line x1="432" x2="378" y1="378" y2="432" opacity=".55"/>
<line x1="486" x2="432" y1="378" y2="432" opacity=".55"/>
<line x1="540" x2="486" y1="378" y2="432" opacity=".55"/>
<line x1="540" x2="594" y1="378" y2="432" opacity=".55"/>
<line x1="594" x2="648" y1="378" y2="432" opacity=".55"/>
<line x1="648" x2="702" y1="378" y2="432" opacity=".55"/>
<line x1="702" x2="756" y1="378" y2="432" opacity=".55"/>
<line x1="810" x2="756" y1="378" y2="432" opacity=".55"/>
<line x1="864" x2="810" y1="378" y2="432" opacity=".55"/>
<line x1="864" x2="918" y1="378" y2="432" opacity=".55"/>
<line x1="918" x2="972" y1="378" y2="432" opacity=".55"/>
<line x1="1026" x2="972" y1="378" y2="432" opacity=".55"/>
<line x1="1080" x2="1026" y1="378" y2="432" opacity=".55"/>
<line x1="1080" x2="1134" y1="378" y2="432" opacity=".55"/>
<line x1="1134" x2="1188" y1="378" y2="432" opacity=".55"/>
<line x1="1188" x2="1242" y1="378" y2="432" opacity=".55"/>
<line x1="1296" x2="1242" y1="378" y2="432" opacity=".55"/>
<line x1="1296" x2="1350" y1="378" y2="432" opacity=".55"/>
<line x1="1350" x2="1404" y1="378" y2="432" opacity=".55"/>
<line x1="1458" x2="1404" y1="378" y2="432" opacity=".55"/>
<line x2="54" y1="432" y2="486" opacity=".49"/>
<line x1="54" x2="108" y1="432" y2="486" opacity=".49"/>
<line x1="162" x2="108" y1="432" y2="486" opacity=".49"/>
<line x1="216" x2="162" y1="432" y2="486" opacity=".49"/>
<line x1="216" x2="270" y1="432" y2="486" opacity=".49"/>
<line x1="324" x2="270" y1="432" y2="486" opacity=".49"/>
<line x1="378" x2="324" y1="432" y2="486" opacity=".49"/>
<line x1="432" x2="378" y1="432" y2="486" opacity=".49"/>
<line x1="432" x2="486" y1="432" y2="486" opacity=".49"/>
<line x1="486" x2="540" y1="432" y2="486" opacity=".49"/>
<line x1="540" x2="594" y1="432" y2="486" opacity=".49"/>
<line x1="594" x2="648" y1="432" y2="486" opacity=".49"/>
<line x1="648" x2="702" y1="432" y2="486" opacity=".49"/>
<line x1="756" x2="702" y1="432" y2="486" opacity=".49"/>
<line x1="756" x2="810" y1="432" y2="486" opacity=".49"/>
<line x1="864" x2="810" y1="432" y2="486" opacity=".49"/>
<line x1="864" x2="918" y1="432" y2="486" opacity=".49"/>
<line x1="918" x2="972" y1="432" y2="486" opacity=".49"/>
<line x1="972" x2="1026" y1="432" y2="486" opacity=".49"/>
<line x1="1080" x2="1026" y1="432" y2="486" opacity=".49"/>
<line x1="1080" x2="1134" y1="432" y2="486" opacity=".49"/>
<line x1="1188" x2="1134" y1="432" y2="486" opacity=".49"/>
<line x1="1242" x2="1188" y1="432" y2="486" opacity=".49"/>
<line x1="1242" x2="1296" y1="432" y2="486" opacity=".49"/>
<line x1="1296" x2="1350" y1="432" y2="486" opacity=".49"/>
<line x1="1350" x2="1404" y1="432" y2="486" opacity=".49"/>
<line x1="1404" x2="1458" y1="432" y2="486" opacity=".49"/>
<line x1="54" y1="486" y2="540" opacity=".42"/>
<line x1="54" x2="108" y1="486" y2="540" opacity=".42"/>
<line x1="162" x2="108" y1="486" y2="540" opacity=".42"/>
<line x1="162" x2="216" y1="486" y2="540" opacity=".42"/>
<line x1="216" x2="270" y1="486" y2="540" opacity=".42"/>
<line x1="270" x2="324" y1="486" y2="540" opacity=".42"/>
<line x1="324" x2="378" y1="486" y2="540" opacity=".42"/>
<line x1="378" x2="432" y1="486" y2="540" opacity=".42"/>
<line x1="486" x2="432" y1="486" y2="540" opacity=".42"/>
<line x1="486" x2="540" y1="486" y2="540" opacity=".42"/>
<line x1="540" x2="594" y1="486" y2="540" opacity=".42"/>
<line x1="648" x2="594" y1="486" y2="540" opacity=".42"/>
<line x1="648" x2="702" y1="486" y2="540" opacity=".42"/>
<line x1="702" x2="756" y1="486" y2="540" opacity=".42"/>
<line x1="756" x2="810" y1="486" y2="540" opacity=".42"/>
<line x1="864" x2="810" y1="486" y2="540" opacity=".42"/>
<line x1="918" x2="864" y1="486" y2="540" opacity=".42"/>
<line x1="972" x2="918" y1="486" y2="540" opacity=".42"/>
<line x1="972" x2="1026" y1="486" y2="540" opacity=".42"/>
<line x1="1080" x2="1026" y1="486" y2="540" opacity=".42"/>
<line x1="1134" x2="1080" y1="486" y2="540" opacity=".42"/>
<line x1="1134" x2="1188" y1="486" y2="540" opacity=".42"/>
<line x1="1188" x2="1242" y1="486" y2="540" opacity=".42"/>
<line x1="1242" x2="1296" y1="486" y2="540" opacity=".42"/>
<line x1="1296" x2="1350" y1="486" y2="540" opacity=".42"/>
<line x1="1350" x2="1404" y1="486" y2="540" opacity=".42"/>
<line x1="1458" x2="1404" y1="486" y2="540" opacity=".42"/>
<line x2="54" y1="540" y2="594" opacity=".36"/>
<line x1="108" x2="54" y1="540" y2="594" opacity=".36"/>
<line x1="162" x2="108" y1="540" y2="594" opacity=".36"/>
<line x1="216" x2="162" y1="540" y2="594" opacity=".36"/>
<line x1="216" x2="270" y1="540" y2="594" opacity=".36"/>
<line x1="324" x2="270" y1="540" y2="594" opacity=".36"/>
<line x1="378" x2="324" y1="540" y2="594" opacity=".36"/>
<line x1="378" x2="432" y1="540" y2="594" opacity=".36"/>
<line x1="486" x2="432" y1="540" y2="594" opacity=".36"/>
<line x1="540" x2="486" y1="540" y2="594" opacity=".36"/>
<line x1="594" x2="540" y1="540" y2="594" opacity=".36"/>
<line x1="648" x2="594" y1="540" y2="594" opacity=".36"/>
<line x1="648" x2="702" y1="540" y2="594" opacity=".36"/>
<line x1="756" x2="702" y1="540" y2="594" opacity=".36"/>
<line x1="810" x2="756" y1="540" y2="594" opacity=".36"/>
<line x1="810" x2="864" y1="540" y2="594" opacity=".36"/>
<line x1="864" x2="918" y1="540" y2="594" opacity=".36"/>
<line x1="918" x2="972" y1="540" y2="594" opacity=".36"/>
<line x1="1026" x2="972" y1="540" y2="594" opacity=".36"/>
<line x1="1026" x2="1080" y1="540" y2="594" opacity=".36"/>
<line x1="1134" x2="1080" y1="540" y2="594" opacity=".36"/>
<line x1="1134" x2="1188" y1="540" y2="594" opacity=".36"/>
<line x1="1242" x2="1188" y1="540" y2="594" opacity=".36"/>
<line x1="1242" x2="1296" y1="540" y2="594" opacity=".36"/>
<line x1="1296" x2="1350" y1="540" y2="594" opacity=".36"/>
<line x1="1350" x2="1404" y1="540" y2="594" opacity=".36"/>
<line x1="1458" x2="1404" y1="540" y2="594" opacity=".36"/>
<line x2="54" y1="594" y2="648" opacity=".29"/>
<line x1="54" x2="108" y1="594" y2="648" opacity=".29"/>
<line x1="108" x2="162" y1="594" y2="648" opacity=".29"/>
<line x1="162" x2="216" y1="594" y2="648" opacity=".29"/>
<line x1="216" x2="270" y1="594" y2="648" opacity=".29"/>
<line x1="324" x2="270" y1="594" y2="648" opacity=".29"/>
<line x1="324" x2="378" y1="594" y2="648" opacity=".29"/>
<line x1="378" x2="432" y1="594" y2="648" opacity=".29"/>
<line x1="432" x2="486" y1="594" y2="648" opacity=".29"/>
<line x1="540" x2="486" y1="594" y2="648" opacity=".29"/>
<line x1="540" x2="594" y1="594" y2="648" opacity=".29"/>
<line x1="648" x2="594" y1="594" y2="648" opacity=".29"/>
<line x1="702" x2="648" y1="594" y2="648" opacity=".29"/>
<line x1="702" x2="756" y1="594" y2="648" opacity=".29"/>
<line x1="810" x2="756" y1="594" y2="648" opacity=".29"/>
<line x1="810" x2="864" y1="594" y2="648" opacity=".29"/>
<line x1="864" x2="918" y1="594" y2="648" opacity=".29"/>
<line x1="972" x2="918" y1="594" y2="648" opacity=".29"/>
<line x1="1026" x2="972" y1="594" y2="648" opacity=".29"/>
<line x1="1080" x2="1026" y1="594" y2="648" opacity=".29"/>
<line x1="1134" x2="1080" y1="594" y2="648" opacity=".29"/>
<line x1="1134" x2="1188" y1="594" y2="648" opacity=".29"/>
<line x1="1188" x2="1242" y1="594" y2="648" opacity=".29"/>
<line x1="1242" x2="1296" y1="594" y2="648" opacity=".29"/>
<line x1="1296" x2="1350" y1="594" y2="648" opacity=".29"/>
<line x1="1404" x2="1350" y1="594" y2="648" opacity=".29"/>
<line x1="1404" x2="1458" y1="594" y2="648" opacity=".29"/>
<line x1="54" y1="648" y2="702" opacity=".23"/>
<line x1="54" x2="108" y1="648" y2="702" opacity=".23"/>
<line x1="162" x2="108" y1="648" y2="702" opacity=".23"/>
<line x1="162" x2="216" y1="648" y2="702" opacity=".23"/>
<line x1="270" x2="216" y1="648" y2="702" opacity=".23"/>
<line x1="324" x2="270" y1="648" y2="702" opacity=".23"/>
<line x1="378" x2="324" y1="648" y2="702" opacity=".23"/>
<line x1="432" x2="378" y1="648" y2="702" opacity=".23"/>
<line x1="432" x2="486" y1="648" y2="702" opacity=".23"/>
<line x1="486" x2="540" y1="648" y2="702" opacity=".23"/>
<line x1="594" x2="540" y1="648" y2="702" opacity=".23"/>
<line x1="648" x2="594" y1="648" y2="702" opacity=".23"/>
<line x1="702" x2="648" y1="648" y2="702" opacity=".23"/>
<line x1="756" x2="702" y1="648" y2="702" opacity=".23"/>
<line x1="756" x2="810" y1="648" y2="702" opacity=".23"/>
<line x1="864" x2="810" y1="648" y2="702" opacity=".23"/>
<line x1="864" x2="918" y1="648" y2="702" opacity=".23"/>
<line x1="972" x2="918" y1="648" y2="702" opacity=".23"/>
<line x1="1026" x2="972" y1="648" y2="702" opacity=".23"/>
<line x1="1026" x2="1080" y1="648" y2="702" opacity=".23"/>
<line x1="1080" x2="1134" y1="648" y2="702" opacity=".23"/>
<line x1="1134" x2="1188" y1="648" y2="702" opacity=".23"/>
<line x1="1188" x2="1242" y1="648" y2="702" opacity=".23"/>
<line x1="1242" x2="1296" y1="648" y2="702" opacity=".23"/>
<line x1="1296" x2="1350" y1="648" y2="702" opacity=".23"/>
<line x1="1350" x2="1404" y1="648" y2="702" opacity=".23"/>
<line x1="1458" x2="1404" y1="648" y2="702" opacity=".23"/>
<line x2="54" y1="702" y2="756" opacity=".17"/>
<line x1="108" x2="54" y1="702" y2="756" opacity=".17"/>
<line x1="108" x2="162" y1="702" y2="756" opacity=".17"/>
<line x1="216" x2="162" y1="702" y2="756" opacity=".17"/>
<line x1="270" x2="216" y1="702" y2="756" opacity=".17"/>
<line x1="324" x2="270" y1="702" y2="756" opacity=".17"/>
<line x1="378" x2="324" y1="702" y2="756" opacity=".17"/>
<line x1="378" x2="432" y1="702" y2="756" opacity=".17"/>
<line x1="486" x2="432" y1="702" y2="756" opacity=".17"/>
<line x1="486" x2="540" y1="702" y2="756" opacity=".17"/>
<line x1="540" x2="594" y1="702" y2="756" opacity=".17"/>
<line x1="594" x2="648" y1="702" y2="756" opacity=".17"/>
<line x1="702" x2="648" y1="702" y2="756" opacity=".17"/>
<line x1="756" x2="702" y1="702" y2="756" opacity=".17"/>
<line x1="756" x2="810" y1="702" y2="756" opacity=".17"/>
<line x1="810" x2="864" y1="702" y2="756" opacity=".17"/>
<line x1="918" x2="864" y1="702" y2="756" opacity=".17"/>
<line x1="918" x2="972" y1="702" y2="756" opacity=".17"/>
<line x1="1026" x2="972" y1="702" y2="756" opacity=".17"/>
<line x1="1026" x2="1080" y1="702" y2="756" opacity=".17"/>
<line x1="1080" x2="1134" y1="702" y2="756" opacity=".17"/>
<line x1="1188" x2="1134" y1="702" y2="756" opacity=".17"/>
<line x1="1242" x2="1188" y1="702" y2="756" opacity=".17"/>
<line x1="1296" x2="1242" y1="702" y2="756" opacity=".17"/>
<line x1="1350" x2="1296" y1="702" y2="756" opacity=".17"/>
<line x1="1350" x2="1404" y1="702" y2="756" opacity=".17"/>
<line x1="1404" x2="1458" y1="702" y2="756" opacity=".17"/>
<line x2="54" y1="756" y2="810" opacity=".1"/>
<line x1="108" x2="54" y1="756" y2="810" opacity=".1"/>
<line x1="162" x2="108" y1="756" y2="810" opacity=".1"/>
<line x1="162" x2="216" y1="756" y2="810" opacity=".1"/>
<line x1="216" x2="270" y1="756" y2="810" opacity=".1"/>
<line x1="270" x2="324" y1="756" y2="810" opacity=".1"/>
<line x1="378" x2="324" y1="756" y2="810" opacity=".1"/>
<line x1="378" x2="432" y1="756" y2="810" opacity=".1"/>
<line x1="432" x2="486" y1="756" y2="810" opacity=".1"/>
<line x1="486" x2="540" y1="756" y2="810" opacity=".1"/>
<line x1="594" x2="540" y1="756" y2="810" opacity=".1"/>
<line x1="594" x2="648" y1="756" y2="810" opacity=".1"/>
<line x1="648" x2="702" y1="756" y2="810" opacity=".1"/>
<line x1="702" x2="756" y1="756" y2="810" opacity=".1"/>
<line x1="810" x2="756" y1="756" y2="810" opacity=".1"/>
<line x1="810" x2="864" y1="756" y2="810" opacity=".1"/>
<line x1="918" x2="864" y1="756" y2="810" opacity=".1"/>
<line x1="918" x2="972" y1="756" y2="810" opacity=".1"/>
<line x1="1026" x2="972" y1="756" y2="810" opacity=".1"/>
<line x1="1026" x2="1080" y1="756" y2="810" opacity=".1"/>
<line x1="1080" x2="1134" y1="756" y2="810" opacity=".1"/>
<line x1="1134" x2="1188" y1="756" y2="810" opacity=".1"/>
<line x1="1242" x2="1188" y1="756" y2="810" opacity=".1"/>
<line x1="1242" x2="1296" y1="756" y2="810" opacity=".1"/>
<line x1="1350" x2="1296" y1="756" y2="810" opacity=".1"/>
<line x1="1350" x2="1404" y1="756" y2="810" opacity=".1"/>
<line x1="1458" x2="1404" y1="756" y2="810" opacity=".1"/>
</g>
</svg>
